<svg xmlns="http://www.w3.org/2000/svg"  viewBox="0 0 48 48" width="48px" height="48px"><path fill="#d03827" d="M43.002,11.66c0.132-1.734,0.181-3.482-0.806-4.913c-0.717-1.04-1.915-1.667-3.144-1.948 c-1.23-0.281-2.506-0.254-3.767-0.225c-5.013,0.115-10.606,0.145-15.619,0.271c-2.349,0.059-5.278,0.053-7.627,0.117 c-1.184,0.032-2.407,0.073-3.48,0.577C6.906,6.316,5.911,8.052,5.349,9.792c-1.466,4.539-0.66,9.449-0.256,14.202 c0.386,4.543,0.388,9.118,0.007,13.661c-0.069,0.82,0.169,1.655,0.709,2.274c1.216,1.395,2.558,2.812,4.361,3.217 s3.68,0.235,5.521,0.063c1.439-0.135,2.864-0.126,4.303-0.26c5.335-0.405,10.671-0.465,16.021-0.466 c1.856-0.001,3.885-0.036,5.307-1.231c1.469-1.235,1.832-3.332,1.939-5.25c0.222-3.96-0.23-7.922-0.436-11.882 C42.566,19.123,42.483,16.635,43.002,11.66z"/><path fill="#010101" d="M12.669,43.897c-0.869,0-1.741-0.068-2.607-0.263c-1.934-0.436-3.347-1.907-4.629-3.378 c-0.61-0.698-0.913-1.662-0.831-2.644c0.377-4.505,0.375-9.073-0.007-13.577c-0.06-0.7-0.128-1.404-0.196-2.11 c-0.396-4.091-0.806-8.32,0.475-12.287C5.38,8.067,6.395,6.003,8.346,5.087c1.185-0.556,2.51-0.592,3.679-0.624 c1.216-0.033,2.586-0.048,3.952-0.063c1.273-0.014,2.542-0.026,3.676-0.056c2.633-0.065,5.426-0.105,8.211-0.145 c2.518-0.035,5.029-0.071,7.409-0.126c1.275-0.029,2.59-0.06,3.89,0.237c1.501,0.343,2.724,1.107,3.445,2.15 c1.074,1.559,1.03,3.44,0.893,5.235l-0.001,0.014c-0.522,5.014-0.424,7.556-0.172,12.381c0.055,1.056,0.127,2.111,0.2,3.166 c0.197,2.87,0.4,5.838,0.235,8.771c-0.104,1.868-0.44,4.194-2.117,5.604c-1.604,1.349-3.835,1.349-5.629,1.349 c-5.937,0.002-10.926,0.082-15.983,0.466c-0.719,0.067-1.443,0.099-2.167,0.131c-0.708,0.031-1.416,0.063-2.126,0.129 C14.729,43.801,13.702,43.897,12.669,43.897z M36.432,5.057c-0.38,0-0.76,0.009-1.135,0.018c-2.383,0.055-4.897,0.09-7.418,0.126 c-2.782,0.039-5.571,0.079-8.2,0.145c-1.138,0.028-2.412,0.042-3.69,0.056c-1.36,0.015-2.725,0.029-3.936,0.063 c-1.071,0.029-2.286,0.062-3.282,0.529C7.145,6.756,6.271,8.563,5.826,9.945c-1.218,3.77-0.818,7.896-0.431,11.885 c0.068,0.709,0.137,1.417,0.197,2.122c0.387,4.559,0.39,9.184,0.007,13.745C5.54,38.41,5.754,39.104,6.187,39.6 c1.173,1.346,2.455,2.69,4.094,3.059c1.741,0.392,3.583,0.22,5.365,0.053c0.728-0.068,1.452-0.1,2.176-0.132 c0.708-0.031,1.416-0.063,2.127-0.129c5.096-0.386,10.107-0.467,16.067-0.469c1.631,0,3.661,0,4.985-1.114 c1.384-1.162,1.668-3.227,1.762-4.895c0.161-2.871-0.041-5.807-0.235-8.646c-0.073-1.061-0.146-2.121-0.201-3.182 c-0.254-4.876-0.353-7.446,0.176-12.53c0.128-1.681,0.168-3.296-0.719-4.585c-0.578-0.836-1.588-1.456-2.844-1.743 C38.127,5.101,37.278,5.057,36.432,5.057z"/><path fill="#d6e5e5" d="M23.778,37.5c-2.414,0.014-4.924-0.733-6.98-2.034c-2.056-1.301-3.691-3.433-4.057-5.887 c-0.085-0.571-0.102-1.15-0.111-1.727c-0.028-1.848,0.032-3.734,0.638-5.474c0.813-2.33,3.399-5.491,5.095-7.248 c-0.205,1.332,0.362,4.211,1.341,5.109c0.105,0.096,0.22,0.189,0.356,0.222c0.133,0.032,0.271,0.005,0.404-0.027 c2.066-0.495,3.216-2.187,4.103-4.169c0.887-1.981,0.649-4.614-0.01-6.688c0.781,0.16,1.483,0.511,2.125,0.997 c2.916,2.205,7.57,5.924,8.601,11.704c0.255,1.428,0.169,2.898-0.076,4.328c-0.348,2.033-0.96,4.038-2.004,5.8 c-1.044,1.763-2.54,3.276-4.372,4.119C27.278,37.242,25.48,37.49,23.778,37.5z"/><path fill="#010101" d="M23.711,38c-2.479,0-5.026-0.748-7.181-2.111c-2.32-1.468-3.921-3.799-4.284-6.235 c-0.091-0.614-0.107-1.223-0.116-1.793c-0.028-1.86,0.033-3.831,0.666-5.646c0.821-2.354,3.318-5.474,5.207-7.431 c0.151-0.156,0.387-0.198,0.582-0.101c0.195,0.097,0.305,0.309,0.272,0.524c-0.195,1.266,0.396,3.94,1.185,4.665 c0.088,0.081,0.124,0.1,0.137,0.104c0.012-0.002,0.055-0.001,0.167-0.028c1.59-0.381,2.716-1.543,3.764-3.886 c0.726-1.622,0.715-3.989-0.03-6.332c-0.054-0.169-0.014-0.354,0.105-0.485c0.118-0.133,0.296-0.192,0.472-0.156 c0.809,0.166,1.592,0.532,2.326,1.088c2.494,1.886,7.685,5.812,8.792,12.015c0.239,1.338,0.214,2.81-0.075,4.5 c-0.396,2.317-1.092,4.326-2.066,5.972c-1.174,1.982-2.762,3.477-4.593,4.318c-1.441,0.663-3.21,1.006-5.259,1.019l0,0 C23.758,38,23.734,38,23.711,38z M23.778,37.5h0.01H23.778z M17.852,16.422c-1.485,1.672-3.435,4.183-4.111,6.122 c-0.582,1.667-0.637,3.533-0.61,5.301c0.008,0.537,0.023,1.107,0.105,1.662c0.32,2.152,1.752,4.222,3.83,5.536 C19.034,36.288,21.454,37,23.715,37c0.02,0,0.04,0,0.061,0l0,0c1.906-0.012,3.537-0.324,4.847-0.927 c1.622-0.746,3.096-2.139,4.151-3.92c0.912-1.54,1.565-3.435,1.941-5.63c0.27-1.575,0.294-2.935,0.076-4.156 c-1.038-5.817-6.018-9.583-8.411-11.394c-0.36-0.272-0.723-0.486-1.094-0.645c0.552,2.272,0.464,4.517-0.263,6.142 c-0.79,1.766-2.009,3.866-4.443,4.45c-0.195,0.047-0.408,0.082-0.639,0.026c-0.246-0.06-0.429-0.204-0.575-0.338 C18.52,19.832,17.98,17.937,17.852,16.422z"/></svg>