<svg xmlns="http://www.w3.org/2000/svg"  viewBox="0 0 48 48" width="48px" height="48px"><path fill="#d6e5e5" d="M40.038,10.596c-0.276,10.009,1.066,21.854-0.298,32.078c-0.06,0.448-0.141,0.927-0.453,1.254 c-0.395,0.414-1.029,0.458-1.601,0.474c-4.311,0.12-8.688,0.897-12.999,0.99c-4.068,0.088-8.197,0.196-12.264,0.073 c-0.622-0.019-1.332-0.086-1.703-0.585c-0.2-0.27-0.258-0.616-0.307-0.948c-0.375-2.543-0.566-6.114-0.571-8.684 c-0.007-3.686,0.02-3.485-0.237-7.163c-0.125-1.783,1.045-7.927,0.895-9.708c-0.348-4.117-1.136-8.774-0.806-12.892 c0.08-0.995,0.468-2.263,1.437-2.503c6.602-0.473,13.353-0.589,19.964-0.267c0.58,0.028,1.172,0.062,1.711,0.277 c0.531,0.211,0.978,0.585,1.415,0.953C36.436,5.805,38.891,7.939,40.038,10.596z"/><path fill="#bcbcbc" d="M40.146,10.807c-1.422-0.265-2.872-0.374-4.318-0.324c-1.111,0.038-2.416,0.091-3.108-0.778 c-0.422-0.529-0.476-1.252-0.513-1.927c-0.082-1.508-0.165-3.016-0.247-4.525l0.846-0.262c0,0,3.165,2.298,4.324,3.568 C38.288,7.827,40.146,10.807,40.146,10.807z"/><path fill="#4b7bb2" d="M28.237,32.229l-14.783,0.04l4.011-6.361l1.197-3.285c0,0,0.927-1.228,1.955-0.25 c1.029,0.978,6.286,8.171,6.286,8.171L28.237,32.229z"/><path fill="#73a1b2" d="M25.331,28.059c0,0,2.127-3.154,3.21-2.784c1.083,0.37,1.819,0.609,3.399,2.861 c1.58,2.252,2.684,3.653,2.684,3.653l-6.562-0.039L25.331,28.059z"/><path fill="#febf10" d="M34.271,19.313c-0.547-0.319-1.077-0.286-1.662-0.044s-0.95,0.85-1.082,1.469 c-0.046,0.215-0.065,0.45,0.036,0.644c0.066,0.126,0.204,0.629,0.312,0.722c0.469,0.402,0.874,0.512,1.458,0.712 c0.584,0.2,1.345,0.047,1.815-0.352c0.603-0.513,0.625-1.523,0.133-2.144S34.955,19.711,34.271,19.313z"/><path fill="#010101" d="M33.888,23.404c-0.247,0-0.491-0.037-0.717-0.115l-0.166-0.056 c-0.515-0.174-0.959-0.324-1.455-0.749c-0.161-0.138-0.247-0.357-0.368-0.702c-0.025-0.072-0.047-0.137-0.064-0.174 c-0.182-0.351-0.132-0.725-0.079-0.975c0.182-0.86,0.697-1.544,1.379-1.827c0.778-0.32,1.467-0.298,2.105,0.074 c0.532,0.31,0.649,0.428,0.881,0.762c0.063,0.091,0.144,0.207,0.271,0.367c0.683,0.864,0.59,2.162-0.203,2.835 C35.048,23.206,34.459,23.404,33.888,23.404z M33.444,19.58c-0.193,0-0.401,0.05-0.644,0.15c-0.444,0.185-0.696,0.695-0.784,1.111 c-0.043,0.203-0.024,0.281-0.01,0.311c0.029,0.056,0.072,0.168,0.117,0.297c0.033,0.092,0.101,0.285,0.134,0.339 c0.291,0.235,0.601,0.34,1.067,0.498l0.17,0.058c0.417,0.14,0.988,0.03,1.329-0.261c0.374-0.317,0.405-1.023,0.065-1.452 c-0.145-0.184-0.235-0.314-0.307-0.417c-0.149-0.215-0.165-0.236-0.564-0.469v-0.001C33.83,19.635,33.646,19.58,33.444,19.58z"/><path fill="#010101" d="M34.589,31.094c-0.059-0.052-0.113-0.099-0.153-0.139c-0.638-0.649-1.146-1.412-1.684-2.219 c-0.682-1.022-1.387-2.081-2.382-2.889c-0.948-0.769-1.985-0.983-2.771-0.581c-0.377,0.193-0.641,0.498-0.874,0.768l-1.338,1.555 c-0.994-1.324-1.954-2.677-2.874-4.055c-0.383-0.574-0.777-1.168-1.369-1.605c-0.749-0.556-1.657-0.69-2.372-0.353 c-0.529,0.25-0.76,1.033-1.049,2.199c-0.085,0.344-0.183,0.733-0.252,0.87c-0.727,1.434-1.453,2.484-2.223,3.596 c-0.754,1.09-1.533,2.217-2.291,3.709c-0.041,0.08-0.05,0.165-0.046,0.248c-0.026,0.063-0.042,0.131-0.04,0.204 c0.007,0.272,0.229,0.488,0.5,0.488c0.004,0,0.008,0,0.012,0l2.456-0.061c6.256-0.157,12.728-0.32,18.897-0.153 c0.005,0,0.01,0,0.014,0c0.226,0,0.423-0.15,0.482-0.369C35.376,31.78,34.902,31.367,34.589,31.094z M15.813,31.83l-1.677,0.041 c0.631-1.163,1.266-2.097,1.933-3.061c0.755-1.091,1.535-2.218,2.293-3.713c0.12-0.238,0.213-0.61,0.33-1.081 c0.111-0.451,0.345-1.389,0.505-1.536c0.456-0.216,1.013,0.001,1.35,0.252c0.452,0.334,0.782,0.83,1.15,1.383 c1.726,2.586,3.614,5.104,5.605,7.505C23.467,31.645,19.603,31.735,15.813,31.83z M28.572,31.611 c-0.013-0.02-0.018-0.042-0.034-0.061c-0.865-1.026-1.705-2.082-2.528-3.152l1.471-1.71c0.189-0.22,0.369-0.427,0.573-0.531 c0.502-0.26,1.199,0.072,1.685,0.469c0.878,0.711,1.511,1.661,2.181,2.666c0.538,0.809,1.096,1.644,1.799,2.361 C32.019,31.616,30.299,31.607,28.572,31.611z"/><path fill="#010101" d="M40.678,22.276c-0.118-3.917-0.225-7.622-0.147-11.163c0.049-0.062,0.09-0.132,0.106-0.215 c0.03-0.158-0.025-0.307-0.124-0.419c-0.007-0.027-0.005-0.056-0.016-0.082c-1.146-2.656-3.471-4.75-5.954-6.836 c-0.44-0.371-0.938-0.792-1.552-1.036c-0.632-0.251-1.319-0.285-1.872-0.312c-6.439-0.315-13.176-0.225-20.108,0.28 c-1.494,0.37-1.768,2.351-1.815,2.949c-0.246,3.074,0.117,6.402,0.468,9.621c0.124,1.142,0.247,2.267,0.339,3.353 c0.072,0.853-0.192,2.884-0.449,4.849c-0.263,2.02-0.511,3.927-0.446,4.853c0.231,3.315,0.232,3.478,0.235,6.188l0.001,0.941 c0.005,2.443,0.185,6.098,0.576,8.755c0.05,0.334,0.116,0.792,0.4,1.174c0.55,0.741,1.552,0.771,2.089,0.787 c1.318,0.04,2.648,0.056,3.979,0.056c2.473,0,4.951-0.055,7.375-0.107l0.937-0.021c2.222-0.048,4.488-0.278,6.68-0.501 c2.08-0.212,4.231-0.431,6.322-0.489c0.519-0.015,1.386-0.038,1.948-0.628c0.411-0.431,0.516-0.994,0.588-1.533 C41.1,36.26,40.885,29.15,40.678,22.276z M33.899,4.326c2.178,1.831,4.214,3.665,5.362,5.836c-1.144-0.155-2.304-0.214-3.48-0.178 c-1.003,0.036-2.141,0.073-2.67-0.591c-0.313-0.393-0.368-0.977-0.405-1.644l-0.237-4.342c0.05,0.016,0.103,0.027,0.152,0.047 C33.084,3.639,33.498,3.988,33.899,4.326z M39.244,42.607c-0.052,0.392-0.115,0.761-0.319,0.975 c-0.257,0.27-0.759,0.305-1.252,0.318c-2.128,0.06-4.298,0.28-6.396,0.494c-2.172,0.221-4.418,0.449-6.6,0.496l-0.937,0.021 c-3.717,0.08-7.56,0.165-11.302,0.052c-0.548-0.017-1.087-0.074-1.316-0.383c-0.124-0.167-0.17-0.426-0.213-0.724 c-0.385-2.607-0.562-6.204-0.566-8.611l-0.001-0.94c-0.003-2.742-0.004-2.906-0.237-6.257c-0.059-0.826,0.195-2.771,0.44-4.653 c0.274-2.109,0.534-4.103,0.453-5.062c-0.092-1.095-0.216-2.227-0.341-3.377c-0.346-3.173-0.703-6.453-0.466-9.433 c0.068-0.846,0.387-1.892,0.976-2.045C15.326,3.18,19.443,3.03,23.478,3.03c2.568,0,5.104,0.061,7.593,0.182 c0.129,0.007,0.262,0.013,0.397,0.023c-0.001,0.016-0.008,0.03-0.007,0.046l0.247,4.524c0.035,0.648,0.084,1.537,0.621,2.212 c0.844,1.058,2.31,1.005,3.517,0.967c1.23-0.044,2.465,0.039,3.683,0.232c-0.074,3.529,0.032,7.206,0.149,11.092 C39.885,29.141,40.098,36.208,39.244,42.607z"/></svg>