<svg xmlns="http://www.w3.org/2000/svg"  viewBox="0 0 512 512" width="48px" height="48px"><path fill="#14B6B9" d="M162.4 262.4c-5.7-.6-10.5 5.3-12 11.5-2.2 9.5 2.7 14.7 12.8 14 1.1-.1 2.1.1 2.9.5C164.7 279.7 163.6 271.1 162.4 262.4zM402.8 266c-.2-3.7-1.2-7.7-3.3-10.9-.7-1.1-1.5-2.7-2.8-3.2-.2-.1-.3-.1-.4-.1-.6.3-1.1.6-1.6 1.1-1.4 1.2-2.9 1.4-4.1 1.1-.5 5.8-1 11.6-1.6 17.5C394.9 272.7 403.3 274.6 402.8 266z"/><path fill="#FCBF95" d="M384.3,156.9c-0.1-0.1-0.2-0.3-0.3-0.5c-0.8-1-1.6-1.9-2.6-2.7c-0.6-0.5-1.5-1.1-2.3-1.3c-0.8,2.7-3.3,5.1-6.4,4.3c-12.2-3.2-21.4-14-27.6-24.4c-3-4.9-5.7-10.3-7.7-15.9c-1.3,1.9-2.8,3.7-4.4,5.4c-6.7,7.1-15,12.1-22.4,18.4c-6.9,5.8-13.5,12.1-22.1,15.3c-2.9,1.1-6-0.6-7-3.4c-2.1-5.7-1.6-12.4-0.8-18.4c-2.5,3.5-5.1,6.9-8.2,9.7c-6.3,5.7-13.5,10.6-21.2,14.2c-5.3,2.5-13.3,3.2-15.4-4c-1-3.6-1-7.3-0.6-11c-9.5,4-21.9,5.2-28.7,6.4c-7.1,1.3-13,4.6-19.2,8.4c-4.4,2.6-8.7,5.4-12.6,8.8c-1.1,1-2.6,2.2-3.4,3.6c0,0-0.2,0.6-0.4,0.9c1.8,5-4,8.2-7.9,6.2c1,16.1,2.8,32.2,5.1,48.2c1.4,10,2.8,20.1,4.2,30.1c0.8,1.2,0.9,2.7,0.6,4c1.5,10.3,3,20.7,4.8,31c3,17.9,7.4,36.2,17.3,51.6c10.5,16.4,26.3,29.2,44.2,36.7c23.5,9.9,50.8,10.8,74.2,0.2c22.9-10.4,40.6-29.7,50.8-52.5c10.8-24,13.3-49.6,15.6-75.6c2.7-29.5,4.3-59.1,5.9-88.7C384.3,160.8,383.6,159,384.3,156.9z M229.9,221c-4.6,3.7-11.9,2.9-16-1c-5-4.7-4.8-12.9-1.2-18c-2.1-0.1-4.2,0.1-6.3,0.6c-0.9,0.9-2.1,1.4-3.7,1.4h-2.1c-6.3,0-9.2-9.5-2.4-11.4c13.2-3.7,30.8-3.5,35.1,12.7C234.7,210.8,234.8,217.2,229.9,221z M261.7,203.5c0.6-7.6,12.2-5.2,11.6,2.2c-1.3,15.6,1.5,31,1.3,46.5c-0.1,7.9-2.2,25.1,7.3,28.4c7.1,2.5,1.8,13.1-5.2,10.5c-13.5-4.8-13.9-22.8-13.8-34.7C263,238.8,260.3,221.3,261.7,203.5z M299.7,329.4c-6.8,4.5-14.4,9.9-23,8.2c-7.7-1.5-15.9-5.7-19-13.3c-2.9-7,8.2-10.9,11.1-3.9c1.6,3.7,8.9,6.2,12.7,5.6c4.3-0.8,8.1-4,11.7-6.3C299.4,315.4,306,325.2,299.7,329.4z M340.5,215.3c-10.1,5.4-20.3-5.7-18-15.7c-2.1,0.5-4,1.7-5.6,3.5c-4.9,5.8-13.8-2-8.8-7.8c8-9.4,20.9-10.3,30.8-3.1C346.4,197.9,350.8,209.8,340.5,215.3z"/><path fill="#C56528" d="M335.3 64.3c0-.2-.1-.3-.1-.5-2.3-16.9-17.7-27.3-32.1-33.6-17.6-7.6-37.1-12.4-56.3-11.1-22.3 1.5-43.5 9.5-62.5 21.1-13.6 8.3-23.8 19.5-30.3 33.5 3.1-.5 6.2-.8 9.3-.8 3.2 0 6.9 2.9 5.8 6.5-2.7 8.7-12.6 11.9-19.3 16.8-4.1 3-7.6 7.5-10.7 11.5-3.6 4.6-7 9.4-9.2 14.8-3.6 8.8-6.4 18.1-7.9 27.6-1 6.2-1.9 13.5-.1 19.9 1.2-.8 2.5-1.5 3.8-2.1 2.8-1.5 7.3-1 8.3 2.7 3.5 14.2 4.9 28.9 8.4 43.1 3.1 12.3 7.5 26.6 18.1 34.6-.1-.5-.1-.9-.2-1.4-4.9-31.5-8.9-63.1-9-95.1 0-7.1 11-7.9 11-.8 0 4.2.1 8.4.2 12.5 2.8-3.9 7.1-7.2 10.3-9.5 7.4-5.3 15.4-10 23.7-13.7 7.1-3.1 16-3.1 23.5-4.8 4.5-1 9.1-2.2 13.2-4.3 2.2-1.1 3.7-2.4 4-3.8 0-.2 0-.5 0-.7.2-7 10.3-8 11-.8.2 2.1 0 4-.6 5.7-.8 5.5-2.2 11.1-1.7 16.5.2-.1.4-.2.6-.3 3-1.4 5.9-3.1 8.7-4.9 6.3-4 12.1-8.8 16.3-15 4.4-6.4 8.8-12.4 15.1-17.1 3.7-2.8 9.8 1 8.5 5.6-1.5 5.5-2.6 11.2-3.3 16.9-.3 2.7-.8 5.8-.9 8.8 5.2-3.4 9.8-8 14.6-11.9 6.4-5.2 13.6-9.4 19.2-15.6 4.7-5.3 8.1-11.4 9.6-18.1 0 0 0-.1 0-.1 0-.5.2-.9.3-1.4.2-1.2.4-2.4.5-3.7.6-7.9-.8-15.7-.8-23.5C334.2 66.3 334.6 65.2 335.3 64.3zM407.7 110.9c1.4.3 2.7.8 4 1.3-3.6-17.3-7.7-34.7-22.5-46-10.2-7.7-32.6-21.2-44.6-10.2.7 2.2 1.2 4.4 1.5 6.8.2 1.6-.2 2.9-1 3.9 0 0 0 .1 0 .1.1 9.4 1.8 18.7.5 28.1-.2 1.1-.4 2.2-.6 3.3 0 0 0 0 0 .1-.9 9.4 4.2 20 9 27.8 4.1 6.6 9.8 15 17.3 18.6 3.6-3.8 9.1-4.4 14.6-1 1.5.9 3.1 2.2 4.6 3.7 3.1-.9 6.8.5 6.5 4.6-.7 13.7-1.4 27.3-2.2 41 16.4-19.9 21.7-51.5 7.2-73.5C399.6 115.6 403 109.7 407.7 110.9z"/><path fill="#14B6B9" d="M430.6,444.1c-4-2.2-8-4.2-12-6.2c-10.2-5-21.8-7.2-33-10c-5.5,17.6-24.3,15.7-39,10.1c-2.5,9.5-6.9,17.7-17.6,21c-12,3.7-22.4-0.4-30.5-8.4c-5.5,6.9-13.9,11.1-23.1,10.9c-9.6-0.3-17.7-5.3-22.6-13.1c-15,9.7-40.4,3.5-42.5-15.7c-3.9,1.3-7.8,2.4-11.6,3.2c-13.5,3-27.2,3.6-40.7,6c-4.3,0.8-8.7,1.4-12.9,2.5c-2,0.5-4,1-5.9,1.7c0.2,0.4,0.5,0.8,0.6,1.3c3.1,9.1,8.5,17.1,16,23.2c15.3,12.4,35.4,17.1,54.4,19.9c9.6,1.4,19.3,2.4,29,3.4c13.2,1.3,26.3,3.3,39.6,3.9c30.6,1.4,61.6-1.8,90.3-13.1c14.4-5.7,28.6-12.2,42.2-19.5c4.4-2.4,9.1-4.3,13.4-6.9c3.1-1.9,7.8-4.2,8.5-8.2c0.3-1.6,1.1-2.7,2.1-3.4C433.8,445.9,432.2,445,430.6,444.1z"/><path fill="#D6E5E5" d="M341.8,404.6c-0.4-0.6-0.8-1.2-1.2-1.8c-0.2,0.4-0.4,0.8-0.8,1.1c-11.2,13.2-29.3,19.6-46.3,18.8c-18.5-0.9-38.8-0.1-55-10.3c-0.8,1.9-1.9,3.6-3.4,5.3c-3.9,4.3-8.7,7.7-13.9,10.5c0,0.2,0,0.4,0,0.7c-0.3,15.2,21.6,17.1,29.4,6.8c2.5-3.2,8.2-2,9.3,1.8c4.9,16.6,26.2,17,32.9,1.4c1.7-4,7.2-3.8,9.5-0.6c5.8,8.1,14.3,14.2,24.5,9.9c8.2-3.4,9.1-11,10.5-18.9c0.6-3.5,4.7-5.4,7.8-3.9c7.7,3.8,26.2,11.8,30-0.5C362.7,420.8,349.9,415.3,341.8,404.6z"/><path fill="#FCBF95" d="M333.5,380c-12,8.3-25.9,14.1-41.4,16.4c-17.8,2.6-35.6,0.4-51.9-5.6c0.2,3.6,0.5,7.2,0.4,10.7c0.8,0,1.6,0.3,2.5,0.8c14.3,9.1,31.7,8.5,48,9.3c14.9,0.7,30.3-3.2,40.4-15c1.5-1.7,3.3-2.2,5-1.8C334.8,390.2,333.9,385.1,333.5,380z"/><path d="M430.7,431.7c-10.7-5.6-21.9-9-33.6-12c-14.4-3.7-29.9-7.1-41.7-16.8c-9.6-7.8-11.1-19.3-11.2-31c0-0.1,0-0.2,0-0.3c17.7-15.9,30.5-37.6,37.5-60.9c2.8-9.3,4.7-18.8,6-28.3c5.1,1,10.1,2,15.4,0.4c7.4-2.2,10.8-10.5,10.7-17.6c-0.2-10.6-10-29.4-22.2-23.3c0.1-0.9,0.1-1.7,0.2-2.6c0.9-11.3,1.7-22.6,2.4-33.8c1.8,0.6,3.9,0.3,5.6-1.4c18.5-19,26.6-49.8,18.6-75.4c3.9,0.9,7.5-2.6,6.4-7.1c-2.9-12.5-4.6-25.3-9.2-37.3c-4.4-11.4-11.9-21.1-21.8-28.2c-14.2-10.2-37.7-21.2-53.8-10.2C333.6,35.3,323,27.6,311.5,22c-19.6-9.6-42.2-14.8-63.9-14c-24.8,0.9-48.4,10.5-69.5,23c-19.3,11.5-31.9,29.1-38.8,50.3c-1.1,3.4,1.4,5.6,4.2,6.1c-2.2,1.7-4.2,3.6-6.3,5.7c-8.2,8.6-15,18.3-19.1,29.5c-3.7,9.9-6.5,20.2-7.7,30.8c-1.1,9.5-0.8,19.9,4.7,28.1c2.1,3.2,6.1,2.9,8.7,0.6c0.4-0.3,0.8-0.7,1.2-1c5.1,25.3,6.4,55.9,26.3,73.7c-5.6,3.8-9.8,10.3-11.6,17.1c-1.7,6.4-0.9,13.7,3,19.1c4.9,6.8,13.6,8.5,21.5,7.9c1.6-0.1,2.8-0.8,3.6-1.7c1.7,9,3.8,17.9,6.7,26.6c9.2,27.6,29.6,49.7,54.7,62.3c0,5,0.6,10,0.7,15.1c0.2,6.7-3.7,10.8-9,14.4c-11.6,7.9-26.1,10.7-39.8,12.6c-10.9,1.5-21.9,2.5-32.8,4.6c-6.5,1.3-20.9,3-22,11.6c-0.3,2.7,1,4.7,2.9,5.7c0.1,0.4,0.1,0.8,0.3,1.2c14.1,40.9,61.1,48.9,98.7,52.8c26.3,2.7,52.5,6.2,79,4.9c15-0.7,29.9-3.1,44.5-6.8c15.2-3.9,29.5-10.2,43.7-16.6c10.2-4.6,20-9.8,30-14.8c7.5-3.8,16.9-8.8,18.6-17.9c2.4,0.1,4.7-1.2,5.1-4.3C450.1,439.8,436.7,434.8,430.7,431.7z M394.8,252.9c0.5-0.4,1-0.8,1.6-1.1c0.1,0,0.2,0.1,0.4,0.1c1.2,0.6,2.1,2.1,2.8,3.2c2,3.2,3,7.1,3.3,10.9c0.6,8.5-7.9,6.7-13.7,5.4c0.6-5.8,1.1-11.6,1.6-17.5C391.9,254.3,393.4,254,394.8,252.9z M389.3,66.3c14.8,11.3,18.9,28.7,22.5,46c-1.3-0.5-2.6-1-4-1.3c-4.8-1.2-8.1,4.6-5.6,8.5c14.5,22,9.2,53.6-7.2,73.5c0.8-13.7,1.5-27.3,2.2-41c0.2-4.1-3.4-5.5-6.5-4.6c-1.5-1.5-3.1-2.8-4.6-3.7c-5.5-3.4-11-2.8-14.6,1c-7.5-3.6-13.2-11.9-17.3-18.6c-4.8-7.8-9.9-18.3-9-27.8c0,0,0,0,0-0.1c0.2-1.1,0.4-2.2,0.6-3.3c1.3-9.4-0.4-18.7-0.5-28.1c0,0,0-0.1,0-0.1c0.8-0.9,1.2-2.2,1-3.9c-0.3-2.4-0.8-4.6-1.5-6.8C356.6,45.1,379.1,58.5,389.3,66.3z M142.3,213.6c-3.6-14.2-4.9-28.9-8.4-43.1c-0.9-3.8-5.4-4.2-8.3-2.7c-1.3,0.7-2.6,1.4-3.8,2.1c-1.8-6.3-0.9-13.7,0.1-19.9c1.5-9.4,4.3-18.7,7.9-27.6c2.2-5.4,5.6-10.3,9.2-14.8c3.1-4,6.6-8.4,10.7-11.5c6.7-5,16.6-8.2,19.3-16.8c1.1-3.6-2.6-6.6-5.8-6.5c-3.1,0-6.3,0.3-9.3,0.8c6.5-14,16.7-25.3,30.3-33.5c19-11.5,40.2-19.6,62.5-21.1c19.2-1.3,38.8,3.5,56.3,11.1c14.5,6.3,29.9,16.7,32.1,33.6c0,0.2,0.1,0.4,0.1,0.5c-0.7,0.9-1.1,2.1-1.1,3.5c0.1,7.8,1.4,15.7,0.8,23.5c-0.1,1.2-0.3,2.5-0.5,3.7c-0.1,0.4-0.2,0.9-0.3,1.4c0,0,0,0.1,0,0.1c-1.5,6.8-4.9,12.9-9.6,18.1c-5.5,6.2-12.7,10.4-19.2,15.6c-4.8,3.9-9.3,8.5-14.6,11.9c0-3,0.5-6.1,0.9-8.8c0.7-5.7,1.8-11.4,3.3-16.9c1.3-4.6-4.8-8.4-8.5-5.6c-6.3,4.7-10.7,10.7-15.1,17.1c-4.3,6.2-10,11-16.3,15c-2.8,1.8-5.7,3.5-8.7,4.9c-0.2,0.1-0.4,0.2-0.6,0.3c-0.5-5.4,0.9-11,1.7-16.5c0.6-1.7,0.8-3.6,0.6-5.7c-0.7-7.2-10.8-6.1-11,0.8c0,0.2,0,0.5,0,0.7c-0.3,1.4-1.8,2.7-4,3.8c-4.1,2.1-8.8,3.2-13.2,4.3c-7.5,1.8-16.4,1.7-23.5,4.8c-8.3,3.6-16.4,8.4-23.7,13.7c-3.2,2.3-7.5,5.6-10.3,9.5c-0.1-4.2-0.2-8.4-0.2-12.5c0-7.1-11-6.2-11,0.8c0.1,31.9,4.2,63.6,9,95.1c0.1,0.5,0.1,0.9,0.2,1.4C149.8,240.2,145.4,225.9,142.3,213.6z M163.3,287.8c-10.1,0.7-15-4.4-12.8-14c1.4-6.1,6.3-12.1,12-11.5c1.2,8.6,2.3,17.3,3.7,25.9C165.3,288,164.4,287.8,163.3,287.8z M195,341.9c-9.9-15.4-14.3-33.8-17.3-51.6c-1.7-10.3-3.3-20.6-4.8-31c0.3-1.4,0.2-2.8-0.6-4c-1.4-10-2.8-20.1-4.2-30.1c-2.3-16-4.1-32.1-5.1-48.2c3.9,2,9.7-1.2,7.9-6.2c0.2-0.3,0.4-0.9,0.4-0.9c0.7-1.3,2.2-2.6,3.4-3.6c3.8-3.4,8.2-6.1,12.6-8.8c6.2-3.7,12.1-7.1,19.2-8.4c6.8-1.2,19.2-2.5,28.7-6.4c-0.4,3.7-0.4,7.4,0.6,11c2,7.2,10.1,6.5,15.4,4c7.7-3.6,14.9-8.5,21.2-14.2c3.2-2.9,5.7-6.3,8.2-9.7c-0.7,6-1.3,12.7,0.8,18.4c1,2.8,4.1,4.4,7,3.4c8.6-3.2,15.2-9.5,22.1-15.3c7.4-6.3,15.7-11.2,22.4-18.4c1.6-1.7,3-3.5,4.4-5.4c2,5.6,4.8,10.9,7.7,15.9c6.2,10.4,15.5,21.2,27.6,24.4c3.1,0.8,5.6-1.6,6.4-4.3c0.8,0.2,1.7,0.9,2.3,1.3c1,0.8,1.9,1.7,2.6,2.7c0.1,0.2,0.2,0.3,0.3,0.5c-0.7,2.1,0,3.9,1.4,5.1c-1.6,29.6-3.2,59.2-5.9,88.7c-2.4,25.9-4.8,51.5-15.6,75.6c-10.3,22.8-27.9,42.1-50.8,52.5c-23.5,10.6-50.7,9.8-74.2-0.2C221.2,371.1,205.5,358.3,195,341.9z M240.3,390.8c16.3,6,34,8.2,51.9,5.6c15.5-2.3,29.3-8.1,41.4-16.4c0.4,5.1,1.3,10.2,3.1,14.9c-1.7-0.4-3.5,0-5,1.8c-10.1,11.8-25.5,15.7-40.4,15c-16.3-0.8-33.8-0.2-48-9.3c-0.9-0.5-1.7-0.8-2.5-0.8C240.8,398,240.5,394.4,240.3,390.8z M235.1,417.7c1.5-1.7,2.6-3.5,3.4-5.3c16.3,10.2,36.5,9.4,55,10.3c17,0.8,35-5.6,46.3-18.8c0.3-0.4,0.6-0.7,0.8-1.1c0.4,0.6,0.8,1.2,1.2,1.8c8,10.7,20.9,16.2,33.3,20.3c-3.8,12.3-22.2,4.3-30,0.5c-3.2-1.6-7.2,0.3-7.8,3.9c-1.4,7.9-2.3,15.5-10.5,18.9c-10.2,4.3-18.7-1.8-24.5-9.9c-2.3-3.2-7.8-3.3-9.5,0.6c-6.7,15.6-27.9,15.3-32.9-1.4c-1.1-3.8-6.9-5.1-9.3-1.8c-7.8,10.3-29.7,8.4-29.4-6.8c0-0.2,0-0.5,0-0.7C226.4,425.5,231.2,422,235.1,417.7z M433.3,450.3c-0.7,3.9-5.4,6.3-8.5,8.2c-4.3,2.6-9,4.5-13.4,6.9c-13.7,7.2-27.8,13.8-42.2,19.5c-28.7,11.3-59.7,14.5-90.3,13.1c-13.3-0.6-26.4-2.6-39.6-3.9c-9.7-0.9-19.4-1.9-29-3.4c-19-2.9-39.2-7.5-54.4-19.9c-7.5-6.1-12.8-14.1-16-23.2c-0.2-0.5-0.4-0.9-0.6-1.3c1.9-0.7,3.9-1.2,5.9-1.7c4.3-1.1,8.6-1.7,12.9-2.5c13.5-2.4,27.3-3,40.7-6c3.8-0.8,7.7-1.9,11.6-3.2c2,19.2,27.5,25.4,42.5,15.7c4.8,7.7,13,12.8,22.6,13.1c9.2,0.3,17.6-4,23.1-10.9c8.1,8,18.5,12.1,30.5,8.4c10.8-3.3,15.2-11.5,17.6-21c14.7,5.6,33.4,7.5,39-10.1c11.2,2.8,22.8,5,33,10c4,2,8.1,4,12,6.2c1.6,0.9,3.2,1.8,4.8,2.7C434.4,447.5,433.6,448.7,433.3,450.3z"/><path d="M281.9 280.7c-9.5-3.4-7.3-20.6-7.3-28.4.1-15.5-2.6-30.9-1.3-46.5.6-7.5-10.9-9.8-11.6-2.2-1.5 17.7 1.2 35.3 1.1 53-.1 11.9.3 29.9 13.8 34.7C283.7 293.8 289 283.2 281.9 280.7zM338.8 192.3c-9.8-7.2-22.7-6.3-30.8 3.1-4.9 5.8 3.9 13.5 8.8 7.8 1.6-1.9 3.6-3 5.6-3.5-2.2 10 8 21.2 18 15.7C350.8 209.8 346.4 197.9 338.8 192.3zM233.2 205.3c-4.3-16.1-21.9-16.3-35.1-12.7-6.8 1.9-3.9 11.4 2.4 11.4h2.1c1.6 0 2.9-.5 3.7-1.4 2.1-.4 4.2-.7 6.3-.6-3.7 5.1-3.8 13.3 1.2 18 4.2 3.9 11.4 4.7 16 1C234.8 217.2 234.7 210.8 233.2 205.3zM293.1 319.6c-3.5 2.4-7.4 5.6-11.7 6.3-3.7.7-11.1-1.8-12.7-5.6-2.9-7-14-3.1-11.1 3.9 3.1 7.5 11.3 11.7 19 13.3 8.7 1.7 16.2-3.6 23-8.2C306 325.2 299.4 315.4 293.1 319.6z"/></svg>